<?xml version="1.0" encoding="utf-8"?>
<!-- Generator: Adobe Illustrator 24.2.3, SVG Export Plug-In . SVG Version: 6.00 Build 0)  -->
<svg version="1.1" id="Ebene_1" xmlns="http://www.w3.org/2000/svg" xmlns:xlink="http://www.w3.org/1999/xlink" x="0px" y="0px"
	 width="59.1px" height="56.1px" viewBox="0 0 59.1 56.1" style="enable-background:new 0 0 59.1 56.1;" xml:space="preserve">
<style type="text/css">
	.st0{fill:#1FC8A9;}
</style>
<g>
	<path class="st0" d="M28,56.2c-9.3,0-18.4-4.7-23.6-12.7c-6.7-10.3-5.8-24.1,2.2-33.4c8-9.4,21.4-12.4,32.7-7.4
		c1.3,0.6,1.8,2,1.3,3.3c-0.6,1.3-2,1.8-3.3,1.3C28.1,3.1,17,5.6,10.5,13.3c-6.6,7.7-7.3,19-1.8,27.5c5.5,8.5,16.1,12.4,25.8,9.5
		c9.7-2.9,16.5-11.9,16.5-22v-2.4c0-1.4,1.1-2.5,2.5-2.5s2.5,1.1,2.5,2.5v2.4c0,12.3-8.3,23.3-20.1,26.8
		C33.3,55.8,30.6,56.2,28,56.2z"/>
</g>
<g>
	<path class="st0" d="M28.1,36.2c-0.6,0-1.3-0.2-1.8-0.7l-7.7-7.6c-1-1-1-2.6,0-3.5c1-1,2.6-1,3.5,0l6,5.9L54.7,4c1-1,2.6-1,3.5,0
		c1,1,1,2.6,0,3.5l-28.3,28C29.4,36,28.8,36.2,28.1,36.2z"/>
</g>
</svg>
