<?xml version="1.0" encoding="utf-8"?>
<!-- Generator: Adobe Illustrator 27.1.1, SVG Export Plug-In . SVG Version: 6.00 Build 0)  -->
<svg version="1.1" id="Capa_1" xmlns="http://www.w3.org/2000/svg" xmlns:xlink="http://www.w3.org/1999/xlink" x="0px" y="0px"
	 viewBox="0 0 34 34" style="enable-background:new 0 0 34 34;" xml:space="preserve">
<style type="text/css">
	.st0{fill:#00AACC;}
</style>
<path class="st0" d="M32.1,0H1.9C0.8,0,0,0.8,0,1.9v30.2c0,1,0.8,1.9,1.9,1.9h16.3V20.8h-4.4v-5.1h4.4v-3.8c0-4.4,2.7-6.8,6.6-6.8
	c1.9,0,3.5,0.1,4,0.2v4.6l-2.7,0c-2.1,0-2.5,1-2.5,2.5v3.3h5.1l-0.7,5.1h-4.4V34h8.7c1,0,1.9-0.8,1.9-1.9V1.9C34,0.8,33.2,0,32.1,0z
	"/>
</svg>
