<?xml version="1.0" encoding="utf-8"?>
<!-- Generator: Adobe Illustrator 27.1.1, SVG Export Plug-In . SVG Version: 6.00 Build 0)  -->
<svg version="1.1" id="Layer_1" xmlns="http://www.w3.org/2000/svg" xmlns:xlink="http://www.w3.org/1999/xlink" x="0px" y="0px"
	 viewBox="0 0 34 34" style="enable-background:new 0 0 34 34;" xml:space="preserve">
<style type="text/css">
	.st0{fill:#00AACC;}
</style>
<path class="st0" d="M10,0.2C8.2,0.3,6.9,0.5,5.9,1c-1.1,0.4-2.1,1-3,2c-0.9,0.9-1.5,1.9-1.9,3C0.5,7,0.2,8.2,0.1,10
	c-0.1,1.8-0.1,2.4-0.1,7c0,4.6,0,5.2,0.1,7c0.1,1.8,0.4,3,0.8,4.1c0.4,1.1,1,2.1,2,3c0.9,0.9,1.9,1.5,3,1.9c1.1,0.4,2.3,0.7,4.1,0.8
	c1.8,0.1,2.4,0.1,7,0.1c4.6,0,5.2,0,7-0.1c1.8-0.1,3-0.4,4.1-0.8c1.1-0.4,2.1-1,3-2c0.9-0.9,1.5-1.9,1.9-3c0.4-1.1,0.7-2.3,0.8-4.1
	c0.1-1.8,0.1-2.4,0.1-7c0-4.6,0-5.2-0.1-7c-0.1-1.8-0.4-3-0.8-4.1c-0.4-1.1-1-2.1-2-3c-0.9-0.9-1.9-1.5-3-1.9
	C27,0.5,25.8,0.2,24,0.1c-1.8-0.1-2.4-0.1-7-0.1C12.4,0.1,11.8,0.1,10,0.2 M10.2,30.8c-1.7-0.1-2.5-0.3-3.1-0.6
	c-0.8-0.3-1.4-0.7-2-1.3c-0.6-0.6-1-1.2-1.3-1.9c-0.2-0.6-0.5-1.5-0.6-3.1c-0.1-1.8-0.1-2.3-0.1-6.8c0-4.5,0-5.1,0.1-6.8
	C3.3,8.5,3.5,7.6,3.8,7c0.3-0.8,0.7-1.4,1.3-2c0.6-0.6,1.2-1,1.9-1.3c0.6-0.2,1.5-0.5,3.1-0.6c1.8-0.1,2.3-0.1,6.8-0.1
	c4.5,0,5.1,0,6.8,0.1c1.7,0.1,2.5,0.3,3.1,0.6c0.8,0.3,1.4,0.7,2,1.3c0.6,0.6,1,1.2,1.3,1.9c0.2,0.6,0.5,1.5,0.6,3.1
	c0.1,1.8,0.1,2.3,0.1,6.8c0,4.5,0,5.1-0.1,6.8c-0.1,1.7-0.3,2.5-0.6,3.1c-0.3,0.8-0.7,1.4-1.3,2c-0.6,0.6-1.2,1-1.9,1.3
	c-0.6,0.2-1.5,0.5-3.1,0.6c-1.8,0.1-2.3,0.1-6.8,0.1C12.5,30.9,12,30.9,10.2,30.8 M24,7.9c0,1.1,0.9,2,2,2c1.1,0,2-0.9,2-2
	c0-1.1-0.9-2-2-2C24.9,5.9,24,6.8,24,7.9 M8.3,17c0,4.8,3.9,8.7,8.7,8.7c4.8,0,8.7-3.9,8.7-8.7c0-4.8-3.9-8.7-8.7-8.7
	C12.2,8.3,8.3,12.2,8.3,17 M11.4,17c0-3.1,2.5-5.7,5.6-5.7c3.1,0,5.7,2.5,5.7,5.6c0,3.1-2.5,5.7-5.6,5.7
	C13.9,22.7,11.4,20.1,11.4,17"/>
</svg>
