<?xml version="1.0" encoding="utf-8"?>
<!-- Generator: Adobe Illustrator 27.1.1, SVG Export Plug-In . SVG Version: 6.00 Build 0)  -->
<svg version="1.1" id="Ebene_1" xmlns="http://www.w3.org/2000/svg" xmlns:xlink="http://www.w3.org/1999/xlink" x="0px" y="0px"
	 viewBox="0 0 34.1 34.1" style="enable-background:new 0 0 34.1 34.1;" xml:space="preserve">
<style type="text/css">
	.st0{fill:#00AACC;}
</style>
<path class="st0" d="M31.5,0.1h-29c-1.4,0-2.5,1.1-2.5,2.4v29.1c0,1.3,1.1,2.4,2.5,2.4h29c1.4,0,2.5-1.1,2.5-2.4V2.5
	C34.1,1.1,32.9,0.1,31.5,0.1z M5.3,28.5V13.2h5.1v15.3H5.3z M7.9,11.1L7.9,11.1L7.9,11.1C6.1,11.1,5,9.9,5,8.5C5,7,6.1,5.8,7.9,5.8
	c1.7,0,2.8,1.1,2.8,2.6C10.7,9.9,9.6,11.1,7.9,11.1z M28.7,28.5h-5.1v-8.2c0-2.1-0.7-3.5-2.6-3.5c-1.4,0-2.2,0.9-2.6,1.9
	c-0.1,0.3-0.2,0.8-0.2,1.2v8.5c0,0-4.3,0-5.1,0c0-1.7,0,0,0,0s0-14,0-15.3h5.1v2.2c0.7-1,1.9-2.5,4.6-2.5c3.3,0,5.9,2.2,5.9,6.9
	V28.5z"/>
</svg>
