<?xml version="1.0" encoding="utf-8"?>
<!-- Generator: Adobe Illustrator 27.1.1, SVG Export Plug-In . SVG Version: 6.00 Build 0)  -->
<svg version="1.1" id="Ebene_1" xmlns="http://www.w3.org/2000/svg" xmlns:xlink="http://www.w3.org/1999/xlink" x="0px" y="0px"
	 viewBox="0 0 31.8 34.1" style="enable-background:new 0 0 31.8 34.1;" xml:space="preserve">
<style type="text/css">
	.st0{fill:#00AACC;}
</style>
<path class="st0" d="M31.8,11.2c0-7.4-4.8-9.5-4.8-9.5C24.5,0.6,20.3,0.1,16,0h-0.1c-4.3,0-8.5,0.5-11,1.6c0,0-4.8,2.2-4.8,9.5
	c0,1.7,0,3.7,0,5.8c0.2,7.2,1.3,14.3,8,16.1c3.1,0.8,5.7,1,7.8,0.9c3.9-0.2,6-1.4,6-1.4l-0.1-2.8c0,0-2.8,0.9-5.8,0.8
	c-3.1-0.1-6.3-0.3-6.8-4.1c0-0.3-0.1-0.7-0.1-1.1c0,0,3,0.7,6.8,0.9c2.3,0.1,4.5-0.1,6.7-0.4c4.3-0.5,8-3.1,8.4-5.5
	C31.8,16.6,31.8,11.2,31.8,11.2L31.8,11.2z M26.1,20.7h-3.5V12c0-1.8-0.8-2.8-2.3-2.8c-1.7,0-2.6,1.1-2.6,3.3v4.7h-3.5v-4.7
	c0-2.2-0.9-3.3-2.6-3.3c-1.5,0-2.3,0.9-2.3,2.8v8.7H5.8v-8.9c0-1.8,0.5-3.3,1.4-4.3c1-1.1,2.2-1.6,3.8-1.6c1.8,0,3.2,0.7,4.1,2.1
	l0.9,1.5l0.9-1.5c0.9-1.4,2.3-2.1,4.1-2.1c1.6,0,2.8,0.6,3.8,1.6c0.9,1.1,1.4,2.5,1.4,4.3C26.1,11.8,26.1,20.7,26.1,20.7z"/>
</svg>
