<?xml version="1.0" encoding="utf-8"?>
<!-- Generator: Adobe Illustrator 27.1.1, SVG Export Plug-In . SVG Version: 6.00 Build 0)  -->
<svg version="1.1" id="Logo" xmlns="http://www.w3.org/2000/svg" xmlns:xlink="http://www.w3.org/1999/xlink" x="0px" y="0px"
	 viewBox="0 0 40.8 33.2" style="enable-background:new 0 0 40.8 33.2;" xml:space="preserve">
<style type="text/css">
	.st0{fill:#00AACC;}
</style>
<path id="Logo-2" class="st0" d="M36.5,8.3c0,0.4,0,0.8,0,1.1c0,11.1-8.3,23.7-23.7,23.7l0,0c-4.5,0-8.9-1.3-12.7-3.7
	c0.7,0.1,1.4,0.2,2,0.2c3.8,0,7.4-1.3,10.3-3.5C9,26,5.8,23.8,4.7,20.4c1.3,0.1,2.5,0.1,3.8-0.3c-3.9-0.8-6.6-4.2-6.6-8.1v-0.1
	c1.2,0.7,2.4,1.1,3.8,1.1C1.9,10.5,0.8,5.6,3,1.8c4.3,5,10.5,8.1,17.2,8.4c-0.7-2.9,0.2-5.9,2.4-8c3.3-3.2,8.6-2.9,11.7,0.4
	c1.8-0.4,3.6-1.1,5.3-2c-0.6,1.9-1.9,3.5-3.7,4.6c1.6-0.2,3.2-0.7,4.8-1.4C39.6,5.7,38.2,7.2,36.5,8.3L36.5,8.3z"/>
</svg>
